<svg width="224" height="53" viewBox="0 0 224 53" fill="none" xmlns="http://www.w3.org/2000/svg">
<path d="M54.8823 52.1761L54.8675 34.3512C54.8662 32.858 55.5339 31.4109 56.8703 30.0099C58.4555 28.4221 60.3991 27.6272 62.7011 27.6253L62.7032 30.0517C60.9922 30.0532 59.5462 30.7232 58.3652 32.0618C57.6505 32.9023 57.2934 33.7581 57.2942 34.6291L57.3087 52.1741L54.8823 52.1761ZM64.7096 30.0501L64.7076 27.6236C67.5074 27.6213 69.717 28.7705 71.3365 31.0711C72.1463 32.2215 72.5516 33.3099 72.5525 34.3365L72.5673 52.1614L70.0942 52.1635L70.0796 34.6185C70.0788 33.6231 69.5647 32.628 68.5373 31.6334C67.4476 30.5766 66.1717 30.0489 64.7096 30.0501Z" fill="white"/>
<path d="M85.5244 52.1507L85.4973 19.4871L87.9704 19.4851L87.9975 52.1486L85.5244 52.1507ZM89.0606 39.9689L100.996 27.8268L104.309 27.8241L92.3736 39.9661L104.329 52.1351L101.016 52.1378L89.0606 39.9689Z" fill="white"/>
<path d="M115.026 27.7685L117.733 27.7662L125.357 50.0178L124.566 52.1182L123.306 52.1193L115.026 27.7685ZM124.792 43.8122L130.472 27.7557L133.178 27.7534L126.428 46.9838L125.868 46.9843L124.792 43.8122Z" fill="white"/>
<path d="M144.751 46.4087C144.752 48.0574 145.562 49.441 147.181 50.5596C148.55 51.5539 150.199 52.0503 152.128 52.0487L152.126 49.7622C149.7 49.7643 148.128 48.9723 147.411 47.3864C147.193 46.8888 147.084 46.3601 147.083 45.8001L147.082 44.1203C147.081 43.3115 147.252 42.7358 147.594 42.3934C148.122 41.8641 150.066 41.2248 153.425 40.4754C156.411 39.7885 158.355 39.2114 159.256 38.744L159.262 45.0434C159.233 48.1543 157.57 49.7266 154.273 49.7604L154.275 52.0469C156.359 52.0452 158.038 51.5616 159.313 50.5962C159.437 50.5028 159.546 50.4093 159.639 50.3159C160.667 51.3728 161.756 51.9474 162.907 52.0397L162.905 49.7066C162.096 49.6762 161.691 49.1477 161.691 48.1211L161.68 34.9157C161.678 32.7381 160.899 30.919 159.342 29.4582C157.972 28.1839 156.276 27.5476 154.254 27.5492L154.256 29.789C155.78 29.7878 157.056 30.4089 158.084 31.6523C158.831 32.585 159.206 33.6579 159.207 34.8711L159.207 35.6644C159.239 36.4109 157.311 37.2525 153.423 38.1889C149.722 39.0941 147.607 39.6869 147.079 39.9674C145.555 40.8397 144.778 42.2557 144.749 44.2156L144.751 46.4087ZM145.067 33.7163L147.261 34.5544C147.259 32.7812 148.051 31.4429 149.637 30.5395C150.414 30.0722 151.239 29.8382 152.11 29.8375L152.108 27.551C150.024 27.5528 148.235 28.3008 146.743 29.7953C145.625 30.9783 145.066 32.2853 145.067 33.7163Z" fill="white"/>
<path d="M175.771 52.0757L175.756 34.2507C175.755 32.7576 176.423 31.3105 177.759 29.9095C179.344 28.3217 181.288 27.5268 183.59 27.5249L183.592 29.9513C181.881 29.9527 180.435 30.6228 179.254 31.9614C178.539 32.8019 178.182 33.6577 178.183 34.5287L178.197 52.0737L175.771 52.0757ZM185.598 29.9496L185.596 27.5232C188.396 27.5209 190.606 28.67 192.225 30.9707C193.035 32.121 193.44 33.2095 193.441 34.2361L193.456 52.061L190.983 52.0631L190.968 34.5181C190.967 33.5226 190.453 32.5276 189.426 31.533C188.336 30.4762 187.06 29.9484 185.598 29.9496Z" fill="white"/>
<path d="M206.408 45.3776L206.398 34.2253C206.428 32.7632 207.111 31.3627 208.448 30.024C209.971 28.4362 211.852 27.6414 214.092 27.6395L214.094 29.926C212.321 29.9274 210.859 30.7219 209.71 32.3094C209.119 33.1187 208.824 33.8811 208.825 34.5966L208.828 38.2829L221.52 38.2723L221.517 34.586C221.516 33.0306 220.753 31.7714 219.228 30.8083C218.263 30.1869 217.267 29.8767 216.24 29.8775L216.239 27.6377C218.323 27.636 220.19 28.3966 221.84 29.9195C223.21 31.2249 223.911 32.6398 223.943 34.1641L223.949 40.6034L208.83 40.616L208.834 45.3755C208.835 46.3399 209.427 47.3349 210.61 48.3604C211.73 49.2928 212.913 49.7584 214.157 49.7574L214.159 52.0438C211.421 52.0461 209.259 50.928 207.67 48.6895C206.829 47.5081 206.408 46.4041 206.408 45.3776ZM216.259 52.0421L216.257 49.6156C218.279 49.6139 219.865 48.7572 221.014 47.0453C221.356 46.5161 221.589 46.0182 221.713 45.5515L224 46.3428C223.318 48.6143 221.935 50.2486 219.851 51.2458C218.732 51.7756 217.534 52.041 216.259 52.0421Z" fill="white"/>
<path d="M0 40.1137L2.75888 39.1516C3.10684 40.9278 3.72821 42.5067 4.62298 43.8882C5.56746 45.2204 6.5368 46.2072 7.53099 46.8487C8.57489 47.4901 9.59393 48.0082 10.5881 48.4029C11.5823 48.7976 12.4025 49.0443 13.0487 49.143L14.0181 49.217V52.0294C9.49451 52.0294 5.74145 50.1545 2.75888 46.4046C0.969335 44.1349 0.0497095 42.038 0 40.1137ZM0.596514 13.766C0.596514 8.53588 2.93286 4.58865 7.60555 1.92427C9.89219 0.641424 12.0297 0 14.0181 0V2.8124C12.2285 2.8124 10.2899 3.57718 8.20207 5.10673C5.16979 7.42572 3.62879 10.4602 3.57908 14.21C3.57908 18.2066 6.5368 20.9943 12.4522 22.5732C12.999 22.7212 15.8822 23.2886 21.1017 24.2755C21.9964 24.4728 22.7421 24.6455 23.3386 24.7935C27.8622 26.027 30.7453 28.2227 31.9881 31.3805C32.5846 32.9594 32.8828 34.7603 32.8828 36.7832C32.8828 40.9278 31.2424 44.5543 27.9616 47.6628C24.8796 50.5739 21.3502 52.0294 17.3735 52.0294V49.217C19.6601 49.217 22.1207 48.1809 24.7553 46.1086C28.1356 43.3455 29.8505 40.089 29.9003 36.3392C29.9003 31.8985 26.868 28.8888 20.8034 27.3099C20.2566 27.2112 17.5226 26.7178 12.6014 25.8297C11.3089 25.6323 10.3644 25.4103 9.76791 25.1636C5.74145 23.6834 3.1317 21.8331 1.93867 19.6128C1.0439 18.0339 0.596514 16.085 0.596514 13.766ZM17.3735 2.8124V0C21.897 0 25.6252 2.09696 28.5581 6.29089C29.7511 7.96847 30.4968 9.49802 30.795 10.8795L27.9616 11.7677C27.5142 10.1394 26.8431 8.73324 25.9484 7.54907C25.0536 6.31557 24.134 5.42744 23.1895 4.88469C22.245 4.29261 21.3254 3.82388 20.4306 3.47849C19.5358 3.13311 18.7902 2.93575 18.1937 2.88641L17.3735 2.8124Z" fill="white"/>
<path d="M31.7122 10.8818C31.7122 5.02194 36.498 0.271619 42.4017 0.271619C48.3054 0.271619 53.0912 5.02194 53.0912 10.8818C53.0912 16.7416 48.3054 21.4919 42.4017 21.4919C36.498 21.4919 31.7122 16.7416 31.7122 10.8818Z" fill="#F0FF3F"/>
<path d="M40.8746 24.5241H43.9288V51.8074H40.8746V24.5241Z" fill="white"/>
</svg>
